# xmcd
#
# Track frame offsets:
#	150
#	17541
#	29710
#	40597
#	53187
#	63598
#	79319
#	94332
#	107000
#	115122
#	138750
#	149844
#	162820
#	175469
#	185907
#	199578
#	212576
#	226238
#	237742
#	253621
#	273109
#
# Disc length: 3807 seconds
#
# Revision: 1
# Processed by: cddbd v1.5.2PL0 Copyright (c) Steve Scherf et al.
# Submitted via: audiograbber 1.83.01
#
DISCID=320edd15
DTITLE=JANNIE DU TOIT - .....SO VER
DYEAR=1900
DGENRE=Vocal
TTITLE0=N' LIEDJIE VIR JOU
TTITLE1=SO VER
TTITLE2=AFDRAAIPAD (MET CHRISTA STEYN)
TTITLE3=DIE WINDPOMP (MET LUCAS MAREE)
TTITLE4=BOGGOM EN VOERTSEK
TTITLE5=NEGENTIEN SEPTEMBER
TTITLE6=STADSGELUIDE
TTITLE7=EK WIL VIR JOU
TTITLE8=EENVOUD
TTITLE9=ACHTER DE HORIZON
TTITLE10=VLIEG HOOG (MET FORTUKSSIMO)
TTITLE11=ONS TWEE (MET ANNA DAVEL)
TTITLE12=MADELEINE
TTITLE13=IK ZOU WEL EENS WILLEN WETEN
TTITLE14=VOLGENDE WINTER
TTITLE15=VRA MAAR
TTITLE16=DRIE-UUR IN DIE MORE(MET ANDY LUBBE)
TTITLE17=ROSA ROSARUM
TTITLE18=JACOBSBAAI SE AANDLIED
TTITLE19=LEEUSPRUIT(MET VUSI MAHLASELA)
TTITLE20=MARIEKE
EXTD=
EXTT0=
EXTT1=
EXTT2=
EXTT3=
EXTT4=
EXTT5=
EXTT6=
EXTT7=
EXTT8=
EXTT9=
EXTT10=
EXTT11=
EXTT12=
EXTT13=
EXTT14=
EXTT15=
EXTT16=
EXTT17=
EXTT18=
EXTT19=
EXTT20=
PLAYORDER=
